<svg width="173" height="40" viewBox="0 0 173 40" fill="none" xmlns="http://www.w3.org/2000/svg">
<path d="M34.1422 5.85781C30.3647 2.08031 25.3422 0 20 0C14.6578 0 9.63531 2.08031 5.85781 5.85781C2.08031 9.63531 0 14.6578 0 20C0 25.3422 2.08039 30.3646 5.85781 34.1422C9.63523 37.9198 14.6578 40 20 40C25.3422 40 30.3647 37.9197 34.1422 34.1422C37.9197 30.3647 40 25.3422 40 20C40 14.6578 37.9196 9.63539 34.1422 5.85781Z" fill="#33CC95"/>
<path d="M20.5714 8V33.1429" stroke="white" stroke-width="2" stroke-linecap="round" stroke-linejoin="round"/>
<path d="M26.2857 12.5714H17.7143C16.6534 12.5714 15.636 12.9929 14.8859 13.743C14.1357 14.4931 13.7143 15.5106 13.7143 16.5714C13.7143 17.6323 14.1357 18.6497 14.8859 19.3999C15.636 20.15 16.6534 20.5714 17.7143 20.5714H23.4286C24.4894 20.5714 25.5069 20.9929 26.257 21.743C27.0072 22.4932 27.4286 23.5106 27.4286 24.5714C27.4286 25.6323 27.0072 26.6497 26.257 27.3999C25.5069 28.15 24.4894 28.5714 23.4286 28.5714H13.7143" stroke="white" stroke-width="2" stroke-linecap="round" stroke-linejoin="round"/>
<path d="M60.3174 15.704V29H56.9334V27.32C56.5014 27.896 55.9334 28.352 55.2294 28.688C54.5414 29.008 53.7894 29.168 52.9734 29.168C51.9334 29.168 51.0134 28.952 50.2134 28.52C49.4134 28.072 48.7814 27.424 48.3174 26.576C47.8694 25.712 47.6454 24.688 47.6454 23.504V15.704H51.0054V23.024C51.0054 24.08 51.2694 24.896 51.7974 25.472C52.3254 26.032 53.0454 26.312 53.9574 26.312C54.8854 26.312 55.6134 26.032 56.1414 25.472C56.6694 24.896 56.9334 24.08 56.9334 23.024V15.704H60.3174ZM66.9926 17.768C67.4246 17.064 67.9846 16.512 68.6726 16.112C69.3766 15.712 70.1766 15.512 71.0726 15.512V19.04H70.1846C69.1286 19.04 68.3286 19.288 67.7846 19.784C67.2566 20.28 66.9926 21.144 66.9926 22.376V29H63.6326V15.704H66.9926V17.768ZM84.1424 29.216C83.0544 29.216 82.0784 29.024 81.2144 28.64C80.3504 28.24 79.6624 27.704 79.1504 27.032C78.6544 26.36 78.3824 25.616 78.3344 24.8H81.7184C81.7824 25.312 82.0304 25.736 82.4624 26.072C82.9104 26.408 83.4624 26.576 84.1184 26.576C84.7584 26.576 85.2544 26.448 85.6064 26.192C85.9744 25.936 86.1584 25.608 86.1584 25.208C86.1584 24.776 85.9344 24.456 85.4864 24.248C85.0544 24.024 84.3584 23.784 83.3984 23.528C82.4064 23.288 81.5904 23.04 80.9504 22.784C80.3264 22.528 79.7824 22.136 79.3184 21.608C78.8704 21.08 78.6464 20.368 78.6464 19.472C78.6464 18.736 78.8544 18.064 79.2704 17.456C79.7024 16.848 80.3104 16.368 81.0944 16.016C81.8944 15.664 82.8304 15.488 83.9024 15.488C85.4864 15.488 86.7504 15.888 87.6944 16.688C88.6384 17.472 89.1584 18.536 89.2544 19.88H86.0384C85.9904 19.352 85.7664 18.936 85.3664 18.632C84.9824 18.312 84.4624 18.152 83.8064 18.152C83.1984 18.152 82.7264 18.264 82.3904 18.488C82.0704 18.712 81.9104 19.024 81.9104 19.424C81.9104 19.872 82.1344 20.216 82.5824 20.456C83.0304 20.68 83.7264 20.912 84.6704 21.152C85.6304 21.392 86.4224 21.64 87.0464 21.896C87.6704 22.152 88.2064 22.552 88.6544 23.096C89.1184 23.624 89.3584 24.328 89.3744 25.208C89.3744 25.976 89.1584 26.664 88.7264 27.272C88.3104 27.88 87.7024 28.36 86.9024 28.712C86.1184 29.048 85.1984 29.216 84.1424 29.216ZM91.2686 22.304C91.2686 20.96 91.5326 19.768 92.0606 18.728C92.6046 17.688 93.3326 16.888 94.2446 16.328C95.1726 15.768 96.2046 15.488 97.3406 15.488C98.3326 15.488 99.1966 15.688 99.9326 16.088C100.685 16.488 101.285 16.992 101.733 17.6V15.704H105.117V29H101.733V27.056C101.301 27.68 100.701 28.2 99.9326 28.616C99.1806 29.016 98.3086 29.216 97.3166 29.216C96.1966 29.216 95.1726 28.928 94.2446 28.352C93.3326 27.776 92.6046 26.968 92.0606 25.928C91.5326 24.872 91.2686 23.664 91.2686 22.304ZM101.733 22.352C101.733 21.536 101.573 20.84 101.253 20.264C100.933 19.672 100.501 19.224 99.9566 18.92C99.4126 18.6 98.8286 18.44 98.2046 18.44C97.5806 18.44 97.0046 18.592 96.4766 18.896C95.9486 19.2 95.5166 19.648 95.1806 20.24C94.8606 20.816 94.7006 21.504 94.7006 22.304C94.7006 23.104 94.8606 23.808 95.1806 24.416C95.5166 25.008 95.9486 25.464 96.4766 25.784C97.0206 26.104 97.5966 26.264 98.2046 26.264C98.8286 26.264 99.4126 26.112 99.9566 25.808C100.501 25.488 100.933 25.04 101.253 24.464C101.573 23.872 101.733 23.168 101.733 22.352ZM113.942 25.904L117.302 15.704H120.878L115.958 29H111.878L106.982 15.704H110.582L113.942 25.904ZM124.469 14.12C123.877 14.12 123.381 13.936 122.981 13.568C122.597 13.184 122.405 12.712 122.405 12.152C122.405 11.592 122.597 11.128 122.981 10.76C123.381 10.376 123.877 10.184 124.469 10.184C125.061 10.184 125.549 10.376 125.933 10.76C126.333 11.128 126.533 11.592 126.533 12.152C126.533 12.712 126.333 13.184 125.933 13.568C125.549 13.936 125.061 14.12 124.469 14.12ZM126.125 15.704V29H122.765V15.704H126.125ZM136.813 15.512C138.397 15.512 139.677 16.016 140.653 17.024C141.629 18.016 142.117 19.408 142.117 21.2V29H138.757V21.656C138.757 20.6 138.493 19.792 137.965 19.232C137.437 18.656 136.717 18.368 135.805 18.368C134.877 18.368 134.141 18.656 133.597 19.232C133.069 19.792 132.805 20.6 132.805 21.656V29H129.445V15.704H132.805V17.36C133.253 16.784 133.821 16.336 134.509 16.016C135.213 15.68 135.981 15.512 136.813 15.512ZM150.52 15.488C151.512 15.488 152.384 15.688 153.136 16.088C153.888 16.472 154.48 16.976 154.912 17.6V15.704H158.296V29.096C158.296 30.328 158.048 31.424 157.552 32.384C157.056 33.36 156.312 34.128 155.32 34.688C154.328 35.264 153.128 35.552 151.72 35.552C149.832 35.552 148.28 35.112 147.064 34.232C145.864 33.352 145.184 32.152 145.024 30.632H148.36C148.536 31.24 148.912 31.72 149.488 32.072C150.08 32.44 150.792 32.624 151.624 32.624C152.6 32.624 153.392 32.328 154 31.736C154.608 31.16 154.912 30.28 154.912 29.096V27.032C154.48 27.656 153.88 28.176 153.112 28.592C152.36 29.008 151.496 29.216 150.52 29.216C149.4 29.216 148.376 28.928 147.448 28.352C146.52 27.776 145.784 26.968 145.24 25.928C144.712 24.872 144.448 23.664 144.448 22.304C144.448 20.96 144.712 19.768 145.24 18.728C145.784 17.688 146.512 16.888 147.424 16.328C148.352 15.768 149.384 15.488 150.52 15.488ZM154.912 22.352C154.912 21.536 154.752 20.84 154.432 20.264C154.112 19.672 153.68 19.224 153.136 18.92C152.592 18.6 152.008 18.44 151.384 18.44C150.76 18.44 150.184 18.592 149.656 18.896C149.128 19.2 148.696 19.648 148.36 20.24C148.04 20.816 147.88 21.504 147.88 22.304C147.88 23.104 148.04 23.808 148.36 24.416C148.696 25.008 149.128 25.464 149.656 25.784C150.2 26.104 150.776 26.264 151.384 26.264C152.008 26.264 152.592 26.112 153.136 25.808C153.68 25.488 154.112 25.04 154.432 24.464C154.752 23.872 154.912 23.168 154.912 22.352ZM166.666 29.216C165.578 29.216 164.602 29.024 163.738 28.64C162.874 28.24 162.186 27.704 161.674 27.032C161.178 26.36 160.906 25.616 160.858 24.8H164.242C164.306 25.312 164.554 25.736 164.986 26.072C165.434 26.408 165.986 26.576 166.642 26.576C167.282 26.576 167.778 26.448 168.13 26.192C168.498 25.936 168.682 25.608 168.682 25.208C168.682 24.776 168.458 24.456 168.01 24.248C167.578 24.024 166.882 23.784 165.922 23.528C164.93 23.288 164.114 23.04 163.474 22.784C162.85 22.528 162.306 22.136 161.842 21.608C161.394 21.08 161.17 20.368 161.17 19.472C161.17 18.736 161.378 18.064 161.794 17.456C162.226 16.848 162.834 16.368 163.618 16.016C164.418 15.664 165.354 15.488 166.426 15.488C168.01 15.488 169.274 15.888 170.218 16.688C171.162 17.472 171.682 18.536 171.778 19.88H168.562C168.514 19.352 168.29 18.936 167.89 18.632C167.506 18.312 166.986 18.152 166.33 18.152C165.722 18.152 165.25 18.264 164.914 18.488C164.594 18.712 164.434 19.024 164.434 19.424C164.434 19.872 164.658 20.216 165.106 20.456C165.554 20.68 166.25 20.912 167.194 21.152C168.154 21.392 168.946 21.64 169.57 21.896C170.194 22.152 170.73 22.552 171.178 23.096C171.642 23.624 171.882 24.328 171.898 25.208C171.898 25.976 171.682 26.664 171.25 27.272C170.834 27.88 170.226 28.36 169.426 28.712C168.642 29.048 167.722 29.216 166.666 29.216Z" fill="white"/>
</svg>
